<svg width="188" height="26" viewBox="0 0 188 26" fill="none" xmlns="http://www.w3.org/2000/svg">
<path d="M12.964 3.24C13.3747 3.16533 13.608 3.128 13.664 3.128C13.8133 3.128 13.916 3.17467 13.972 3.268C14.028 3.36133 14.0373 3.51067 14 3.716L11.9 21.16C11.8813 21.5147 11.816 21.748 11.704 21.86C11.6107 21.9533 11.4427 22.0373 11.2 22.112C10.8267 22.1867 10.612 22.224 10.556 22.224C10.4253 22.224 10.3227 22.1867 10.248 22.112C10.1733 22.056 10.0987 21.944 10.024 21.776L4.816 8.336L4.284 6.6L2.66 21.16C2.62267 21.5147 2.55733 21.748 2.464 21.86C2.37067 21.972 2.184 22.056 1.904 22.112C1.624 22.1867 1.4 22.224 1.232 22.224C1.08267 22.224 0.989333 22.1773 0.952 22.084C0.914667 22.0093 0.905333 21.86 0.924 21.636L2.884 4.304C2.92133 3.98667 2.996 3.772 3.108 3.66C3.23867 3.548 3.45333 3.436 3.752 3.324C3.99467 3.23067 4.18133 3.184 4.312 3.184C4.51733 3.184 4.68533 3.33333 4.816 3.632L9.94 16.904L10.472 18.836L12.292 4.22C12.3293 3.84667 12.3947 3.604 12.488 3.492C12.5813 3.38 12.74 3.296 12.964 3.24ZM28.5663 10.212C28.5663 12.0787 28.3237 13.936 27.8383 15.784C27.353 17.6133 26.541 19.1533 25.4023 20.404C24.2823 21.6547 22.8263 22.28 21.0343 22.28C19.373 22.2613 18.1037 21.5987 17.2263 20.292C16.3677 18.9853 15.9197 17.2867 15.8823 15.196C15.8823 13.3293 16.125 11.4813 16.6103 9.652C17.0957 7.804 17.8983 6.25467 19.0183 5.004C20.157 3.75333 21.6223 3.128 23.4143 3.128C25.057 3.14667 26.317 3.81867 27.1943 5.144C28.0717 6.45067 28.529 8.14 28.5663 10.212ZM17.6463 14.916C17.6463 16.6147 17.945 17.9867 18.5423 19.032C19.1583 20.0587 20.0637 20.572 21.2583 20.572C22.5837 20.572 23.657 20.0027 24.4783 18.864C25.3183 17.7067 25.9157 16.344 26.2703 14.776C26.625 13.208 26.8023 11.78 26.8023 10.492C26.8023 8.79333 26.4943 7.43067 25.8783 6.404C25.281 5.35867 24.385 4.836 23.1903 4.836C21.865 4.836 20.7823 5.41467 19.9423 6.572C19.121 7.71067 18.533 9.064 18.1783 10.632C17.8237 12.2 17.6463 13.628 17.6463 14.916ZM40.8837 3.128C41.2197 3.10933 41.4531 3.13733 41.5837 3.212C41.7144 3.28667 41.7797 3.408 41.7797 3.576C41.7797 3.65067 41.7611 3.78133 41.7237 3.968C41.6304 4.28533 41.5091 4.49067 41.3597 4.584C41.2291 4.67733 40.9584 4.73333 40.5477 4.752L36.5717 4.808L34.7797 21.16C34.7611 21.5147 34.6957 21.748 34.5837 21.86C34.4904 21.9533 34.3131 22.0373 34.0517 22.112C33.7717 22.1867 33.5477 22.224 33.3797 22.224C33.2117 22.224 33.0997 22.1773 33.0437 22.084C33.0064 22.0093 33.0064 21.86 33.0437 21.636L34.9197 4.836L30.3837 4.92C30.0477 4.93867 29.8144 4.91067 29.6837 4.836C29.5531 4.76133 29.4877 4.64 29.4877 4.472C29.4877 4.39733 29.5064 4.26667 29.5437 4.08C29.6371 3.76267 29.7491 3.55733 29.8797 3.464C30.0291 3.37067 30.3091 3.31467 30.7197 3.296L40.8837 3.128ZM45.2802 3.772C45.2988 3.548 45.2895 3.39867 45.2522 3.324C45.2148 3.23067 45.1122 3.184 44.9442 3.184C44.8882 3.184 44.6548 3.22133 44.2442 3.296C44.0202 3.352 43.8615 3.436 43.7682 3.548C43.6748 3.66 43.6095 3.90267 43.5722 4.276L41.6122 21.636C41.5748 21.86 41.5748 22.0093 41.6122 22.084C41.6682 22.1773 41.7802 22.224 41.9482 22.224C42.1162 22.224 42.3402 22.1867 42.6202 22.112C42.8815 22.0373 43.0588 21.9533 43.1522 21.86C43.2642 21.748 43.3295 21.5147 43.3482 21.16L45.2802 3.772ZM59.1203 3.24C59.5309 3.16533 59.7643 3.128 59.8203 3.128C59.9696 3.128 60.0723 3.17467 60.1283 3.268C60.1843 3.36133 60.1936 3.51067 60.1562 3.716L58.0563 21.16C58.0376 21.5147 57.9723 21.748 57.8603 21.86C57.7669 21.9533 57.5989 22.0373 57.3563 22.112C56.9829 22.1867 56.7683 22.224 56.7123 22.224C56.5816 22.224 56.4789 22.1867 56.4043 22.112C56.3296 22.056 56.2549 21.944 56.1803 21.776L50.9723 8.336L50.4403 6.6L48.8163 21.16C48.7789 21.5147 48.7136 21.748 48.6203 21.86C48.5269 21.972 48.3403 22.056 48.0603 22.112C47.7803 22.1867 47.5563 22.224 47.3883 22.224C47.2389 22.224 47.1456 22.1773 47.1083 22.084C47.0709 22.0093 47.0616 21.86 47.0802 21.636L49.0403 4.304C49.0776 3.98667 49.1523 3.772 49.2643 3.66C49.3949 3.548 49.6096 3.436 49.9083 3.324C50.1509 3.23067 50.3376 3.184 50.4683 3.184C50.6736 3.184 50.8416 3.33333 50.9723 3.632L56.0963 16.904L56.6283 18.836L58.4483 4.22C58.4856 3.84667 58.5509 3.604 58.6443 3.492C58.7376 3.38 58.8963 3.296 59.1203 3.24ZM69.2626 4.78C67.9746 4.78 66.9199 5.35867 66.0986 6.516C65.2773 7.65467 64.6893 9.008 64.3346 10.576C63.9799 12.144 63.8026 13.572 63.8026 14.86C63.8026 16.5213 64.0826 17.8747 64.6426 18.92C65.2213 19.9653 66.0239 20.488 67.0506 20.488C68.3199 20.4693 69.3373 19.9093 70.1026 18.808C70.8866 17.7067 71.3999 16.3067 71.6426 14.608L68.5626 14.804C68.2266 14.8227 68.0026 14.8133 67.8906 14.776C67.7973 14.7387 67.7506 14.636 67.7506 14.468C67.7506 14.412 67.7693 14.2347 67.8066 13.936C67.8813 13.6187 67.9839 13.4227 68.1146 13.348C68.2453 13.2733 68.5346 13.2173 68.9826 13.18L72.5946 12.956C73.0239 12.9373 73.2946 12.9933 73.4066 13.124C73.5373 13.236 73.5839 13.4693 73.5466 13.824C73.2106 16.344 72.5106 18.3693 71.4466 19.9C70.3826 21.4307 68.8519 22.196 66.8546 22.196C65.3613 22.196 64.1946 21.5427 63.3546 20.236C62.5146 18.9293 62.0759 17.2307 62.0386 15.14C62.0386 13.292 62.2813 11.444 62.7666 9.596C63.2519 7.748 64.0453 6.19867 65.1466 4.948C66.2479 3.69733 67.6853 3.072 69.4586 3.072C70.5786 3.09067 71.4933 3.41733 72.2026 4.052C72.9119 4.668 73.3786 5.55467 73.6026 6.712L73.6586 7.076C73.6586 7.22533 73.6119 7.33733 73.5186 7.412C73.4253 7.48667 73.2386 7.56133 72.9586 7.636C72.7533 7.71067 72.5666 7.748 72.3986 7.748C72.2679 7.748 72.1559 7.71067 72.0626 7.636C71.9879 7.56133 71.9319 7.43067 71.8946 7.244C71.7266 6.404 71.4279 5.77867 70.9986 5.368C70.5879 4.95733 70.0093 4.76133 69.2626 4.78ZM75.8804 24.968C75.7871 25.1733 75.6471 25.276 75.4604 25.276C75.3671 25.276 75.1804 25.2293 74.9004 25.136C74.5458 24.968 74.3684 24.7907 74.3684 24.604L74.4244 24.38L86.1004 1.14C86.2124 0.934665 86.3524 0.831999 86.5204 0.831999C86.6138 0.831999 86.7818 0.878665 87.0244 0.971999C87.4164 1.14 87.6124 1.31733 87.6124 1.504C87.6124 1.54133 87.5938 1.616 87.5564 1.728L75.8804 24.968ZM91.1698 22.224C90.8711 22.1867 90.6098 22.0373 90.3858 21.776C90.1618 21.5147 90.0591 21.244 90.0778 20.964L92.1778 4.92C91.6924 4.976 91.1791 5.06 90.6378 5.172L90.4138 5.2C90.2084 5.2 90.0684 5.13467 89.9938 5.004C89.9191 4.87333 89.8818 4.64 89.8818 4.304C89.8818 3.89333 90.0871 3.65067 90.4978 3.576C92.3271 3.22133 93.8858 3.044 95.1738 3.044C96.0324 3.044 96.8164 3.128 97.5258 3.296C98.6831 3.576 99.5791 4.08 100.214 4.808C100.848 5.536 101.166 6.55333 101.166 7.86C101.166 8.812 100.876 9.708 100.298 10.548C99.7191 11.388 98.9071 11.9853 97.8618 12.34C98.8884 12.6013 99.6724 13.1053 100.214 13.852C100.755 14.5987 101.026 15.448 101.026 16.4C101.026 18.0987 100.372 19.508 99.0658 20.628C97.7778 21.7293 95.6684 22.28 92.7378 22.28C92.4391 22.28 91.9164 22.2613 91.1698 22.224ZM99.2618 16.428C99.2618 15.2147 98.7671 14.3747 97.7778 13.908C96.8071 13.4227 95.6218 13.2173 94.2218 13.292C93.9231 13.3107 93.7271 13.292 93.6338 13.236C93.5404 13.1613 93.4938 13.0307 93.4938 12.844L93.5218 12.452C93.5778 12.0973 93.6431 11.892 93.7178 11.836C93.8111 11.7613 94.0444 11.7147 94.4178 11.696C96.0978 11.6027 97.3484 11.22 98.1698 10.548C99.0098 9.85733 99.4298 8.98933 99.4298 7.944C99.4298 6.768 99.0378 5.928 98.2538 5.424C97.4698 4.90133 96.4338 4.64 95.1458 4.64C94.7164 4.64 94.2778 4.668 93.8298 4.724L91.7858 20.544C92.0471 20.5627 92.4298 20.572 92.9338 20.572C95.1364 20.572 96.7418 20.1893 97.7498 19.424C98.7578 18.6587 99.2618 17.66 99.2618 16.428ZM111.896 20.348C112.251 20.3293 112.484 20.348 112.596 20.404C112.708 20.4413 112.764 20.5533 112.764 20.74L112.708 21.244C112.615 21.58 112.503 21.7853 112.372 21.86C112.26 21.9347 112.008 21.9813 111.616 22L104.364 22.28C104.103 22.2987 103.842 22.168 103.58 21.888C103.338 21.5893 103.235 21.3 103.272 21.02L105.092 4.276C105.13 3.90267 105.195 3.66 105.288 3.548C105.382 3.436 105.54 3.352 105.764 3.296C106.212 3.22133 106.464 3.184 106.52 3.184C106.688 3.184 106.791 3.23067 106.828 3.324C106.884 3.39867 106.903 3.548 106.884 3.772L105.064 20.6L111.896 20.348ZM126.758 10.212C126.758 12.0787 126.515 13.936 126.03 15.784C125.544 17.6133 124.732 19.1533 123.594 20.404C122.474 21.6547 121.018 22.28 119.226 22.28C117.564 22.2613 116.295 21.5987 115.418 20.292C114.559 18.9853 114.111 17.2867 114.074 15.196C114.074 13.3293 114.316 11.4813 114.802 9.652C115.287 7.804 116.09 6.25467 117.21 5.004C118.348 3.75333 119.814 3.128 121.606 3.128C123.248 3.14667 124.508 3.81867 125.386 5.144C126.263 6.45067 126.72 8.14 126.758 10.212ZM115.838 14.916C115.838 16.6147 116.136 17.9867 116.734 19.032C117.35 20.0587 118.255 20.572 119.45 20.572C120.775 20.572 121.848 20.0027 122.67 18.864C123.51 17.7067 124.107 16.344 124.462 14.776C124.816 13.208 124.994 11.78 124.994 10.492C124.994 8.79333 124.686 7.43067 124.07 6.404C123.472 5.35867 122.576 4.836 121.382 4.836C120.056 4.836 118.974 5.41467 118.134 6.572C117.312 7.71067 116.724 9.064 116.37 10.632C116.015 12.2 115.838 13.628 115.838 14.916ZM135.954 4.78C134.666 4.78 133.611 5.35867 132.79 6.516C131.969 7.65467 131.381 9.008 131.026 10.576C130.671 12.144 130.494 13.572 130.494 14.86C130.494 16.5213 130.774 17.8747 131.334 18.92C131.913 19.9653 132.715 20.488 133.742 20.488C135.011 20.4693 136.029 19.9093 136.794 18.808C137.578 17.7067 138.091 16.3067 138.334 14.608L135.254 14.804C134.918 14.8227 134.694 14.8133 134.582 14.776C134.489 14.7387 134.442 14.636 134.442 14.468C134.442 14.412 134.461 14.2347 134.498 13.936C134.573 13.6187 134.675 13.4227 134.806 13.348C134.937 13.2733 135.226 13.2173 135.674 13.18L139.286 12.956C139.715 12.9373 139.986 12.9933 140.098 13.124C140.229 13.236 140.275 13.4693 140.238 13.824C139.902 16.344 139.202 18.3693 138.138 19.9C137.074 21.4307 135.543 22.196 133.546 22.196C132.053 22.196 130.886 21.5427 130.046 20.236C129.206 18.9293 128.767 17.2307 128.73 15.14C128.73 13.292 128.973 11.444 129.458 9.596C129.943 7.748 130.737 6.19867 131.838 4.948C132.939 3.69733 134.377 3.072 136.15 3.072C137.27 3.09067 138.185 3.41733 138.894 4.052C139.603 4.668 140.07 5.55467 140.294 6.712L140.35 7.076C140.35 7.22533 140.303 7.33733 140.21 7.412C140.117 7.48667 139.93 7.56133 139.65 7.636C139.445 7.71067 139.258 7.748 139.09 7.748C138.959 7.748 138.847 7.71067 138.754 7.636C138.679 7.56133 138.623 7.43067 138.586 7.244C138.418 6.404 138.119 5.77867 137.69 5.368C137.279 4.95733 136.701 4.76133 135.954 4.78ZM149.544 4.78C148.256 4.78 147.201 5.35867 146.38 6.516C145.559 7.65467 144.971 9.008 144.616 10.576C144.261 12.144 144.084 13.572 144.084 14.86C144.084 16.5213 144.364 17.8747 144.924 18.92C145.503 19.9653 146.305 20.488 147.332 20.488C148.601 20.4693 149.619 19.9093 150.384 18.808C151.168 17.7067 151.681 16.3067 151.924 14.608L148.844 14.804C148.508 14.8227 148.284 14.8133 148.172 14.776C148.079 14.7387 148.032 14.636 148.032 14.468C148.032 14.412 148.051 14.2347 148.088 13.936C148.163 13.6187 148.265 13.4227 148.396 13.348C148.527 13.2733 148.816 13.2173 149.264 13.18L152.876 12.956C153.305 12.9373 153.576 12.9933 153.688 13.124C153.819 13.236 153.865 13.4693 153.828 13.824C153.492 16.344 152.792 18.3693 151.728 19.9C150.664 21.4307 149.133 22.196 147.136 22.196C145.643 22.196 144.476 21.5427 143.636 20.236C142.796 18.9293 142.357 17.2307 142.32 15.14C142.32 13.292 142.563 11.444 143.048 9.596C143.533 7.748 144.327 6.19867 145.428 4.948C146.529 3.69733 147.967 3.072 149.74 3.072C150.86 3.09067 151.775 3.41733 152.484 4.052C153.193 4.668 153.66 5.55467 153.884 6.712L153.94 7.076C153.94 7.22533 153.893 7.33733 153.8 7.412C153.707 7.48667 153.52 7.56133 153.24 7.636C153.035 7.71067 152.848 7.748 152.68 7.748C152.549 7.748 152.437 7.71067 152.344 7.636C152.269 7.56133 152.213 7.43067 152.176 7.244C152.008 6.404 151.709 5.77867 151.28 5.368C150.869 4.95733 150.291 4.76133 149.544 4.78ZM159.55 3.772C159.568 3.548 159.559 3.39867 159.522 3.324C159.484 3.23067 159.382 3.184 159.214 3.184C159.158 3.184 158.924 3.22133 158.514 3.296C158.29 3.352 158.131 3.436 158.038 3.548C157.944 3.66 157.879 3.90267 157.842 4.276L155.882 21.636C155.844 21.86 155.844 22.0093 155.882 22.084C155.938 22.1773 156.05 22.224 156.218 22.224C156.386 22.224 156.61 22.1867 156.89 22.112C157.151 22.0373 157.328 21.9533 157.422 21.86C157.534 21.748 157.599 21.5147 157.618 21.16L159.55 3.772ZM173.39 3.24C173.8 3.16533 174.034 3.128 174.09 3.128C174.239 3.128 174.342 3.17467 174.398 3.268C174.454 3.36133 174.463 3.51067 174.426 3.716L172.326 21.16C172.307 21.5147 172.242 21.748 172.13 21.86C172.036 21.9533 171.868 22.0373 171.626 22.112C171.252 22.1867 171.038 22.224 170.982 22.224C170.851 22.224 170.748 22.1867 170.674 22.112C170.599 22.056 170.524 21.944 170.45 21.776L165.242 8.336L164.71 6.6L163.086 21.16C163.048 21.5147 162.983 21.748 162.89 21.86C162.796 21.972 162.61 22.056 162.33 22.112C162.05 22.1867 161.826 22.224 161.658 22.224C161.508 22.224 161.415 22.1773 161.378 22.084C161.34 22.0093 161.331 21.86 161.35 21.636L163.31 4.304C163.347 3.98667 163.422 3.772 163.534 3.66C163.664 3.548 163.879 3.436 164.178 3.324C164.42 3.23067 164.607 3.184 164.738 3.184C164.943 3.184 165.111 3.33333 165.242 3.632L170.366 16.904L170.898 18.836L172.718 4.22C172.755 3.84667 172.82 3.604 172.914 3.492C173.007 3.38 173.166 3.296 173.39 3.24ZM183.532 4.78C182.244 4.78 181.189 5.35867 180.368 6.516C179.547 7.65467 178.959 9.008 178.604 10.576C178.249 12.144 178.072 13.572 178.072 14.86C178.072 16.5213 178.352 17.8747 178.912 18.92C179.491 19.9653 180.293 20.488 181.32 20.488C182.589 20.4693 183.607 19.9093 184.372 18.808C185.156 17.7067 185.669 16.3067 185.912 14.608L182.832 14.804C182.496 14.8227 182.272 14.8133 182.16 14.776C182.067 14.7387 182.02 14.636 182.02 14.468C182.02 14.412 182.039 14.2347 182.076 13.936C182.151 13.6187 182.253 13.4227 182.384 13.348C182.515 13.2733 182.804 13.2173 183.252 13.18L186.864 12.956C187.293 12.9373 187.564 12.9933 187.676 13.124C187.807 13.236 187.853 13.4693 187.816 13.824C187.48 16.344 186.78 18.3693 185.716 19.9C184.652 21.4307 183.121 22.196 181.124 22.196C179.631 22.196 178.464 21.5427 177.624 20.236C176.784 18.9293 176.345 17.2307 176.308 15.14C176.308 13.292 176.551 11.444 177.036 9.596C177.521 7.748 178.315 6.19867 179.416 4.948C180.517 3.69733 181.955 3.072 183.728 3.072C184.848 3.09067 185.763 3.41733 186.472 4.052C187.181 4.668 187.648 5.55467 187.872 6.712L187.928 7.076C187.928 7.22533 187.881 7.33733 187.788 7.412C187.695 7.48667 187.508 7.56133 187.228 7.636C187.023 7.71067 186.836 7.748 186.668 7.748C186.537 7.748 186.425 7.71067 186.332 7.636C186.257 7.56133 186.201 7.43067 186.164 7.244C185.996 6.404 185.697 5.77867 185.268 5.368C184.857 4.95733 184.279 4.76133 183.532 4.78Z" fill="black"/>
</svg>
