<svg width="20" height="20" viewBox="0 0 20 20" fill="none" xmlns="http://www.w3.org/2000/svg">
<path d="M15.0282 0L2.38652 12.6417L0 20L7.35836 17.6135L20 4.97184L15.0282 0ZM18.3427 4.97184L16.6854 6.62914L13.3709 3.31457L15.0281 1.65727L18.3427 4.97184ZM3.16262 14.0473L5.95273 16.8374L4.70133 17.2433L2.75672 15.2987L3.16262 14.0473ZM3.72906 12.9564L12.5422 4.14324L13.7852 5.38621L4.97199 14.1994L3.72906 12.9564ZM5.80063 15.028L14.6138 6.21477L15.8568 7.45773L7.04359 16.271L5.80063 15.028ZM2.3509 16.5501L3.44996 17.6491L1.82332 18.1767L2.3509 16.5501Z" fill="black"/>
</svg>
