<svg width="37" height="34" viewBox="0 0 37 34" fill="none" xmlns="http://www.w3.org/2000/svg">
<path d="M36.5681 14.5046L19.3353 0.625169C18.8571 0.240178 18.1428 0.240178 17.6647 0.625169L0.431889 14.5046C-0.0943204 14.9284 -0.147033 15.6641 0.314199 16.1478C0.77543 16.6313 1.57615 16.6798 2.10236 16.2559L3.43668 15.1813V32.4993C3.43668 33.1423 4.00395 33.6637 4.7038 33.6637H14.3068H22.6931H32.2961C32.9959 33.6637 33.5632 33.1423 33.5632 32.4993V15.1814L34.8975 16.2561C35.1381 16.4497 35.4359 16.5449 35.7322 16.5449C36.0846 16.5449 36.4351 16.4106 36.6856 16.1479C37.1471 15.6641 37.0944 14.9285 36.5681 14.5046ZM15.574 31.3349V21.743H21.4259V31.335L15.574 31.3349ZM31.0292 13.1492V31.3349H23.9605V20.5786C23.9605 19.9356 23.393 19.4143 22.6933 19.4143H14.307C13.6073 19.4143 13.0399 19.9356 13.0399 20.5786V31.335H5.97102V13.1492C5.97102 13.1463 5.97062 13.1435 5.97062 13.1406L18.5 3.04913L31.0296 13.1405C31.0297 13.1436 31.0292 13.1463 31.0292 13.1492Z" fill="black"/>
<path d="M15.6621 11.2469C15.6621 11.89 16.2294 12.4113 16.9293 12.4113H20.0717C20.7715 12.4113 21.3388 11.89 21.3388 11.2469C21.3388 10.6038 20.7715 10.0825 20.0717 10.0825H16.9293C16.2295 10.0825 15.6621 10.6038 15.6621 11.2469Z" fill="black"/>
</svg>
