<svg width="37" height="34" viewBox="0 0 37 34" fill="none" xmlns="http://www.w3.org/2000/svg">
<path d="M13.8746 16.2331C9.62431 16.2331 6.1664 12.7911 6.1664 8.55994C6.1664 4.32881 9.62431 0.886475 13.8746 0.886475C18.1248 0.886475 21.5827 4.32881 21.5827 8.55994C21.5827 12.7911 18.1248 16.2331 13.8746 16.2331V16.2331ZM13.8746 3.18849C10.8994 3.18849 8.47882 5.59784 8.47882 8.55994C8.47882 11.5218 10.8994 13.9311 13.8746 13.9311C16.8498 13.9311 19.2703 11.5218 19.2703 8.55994C19.2703 5.59784 16.8498 3.18849 13.8746 3.18849V3.18849Z" fill="black"/>
<path d="M26.5929 33.1145H1.15621C0.517982 33.1145 0 32.5989 0 31.9635V26.5921C0 22.5728 3.28516 19.3025 7.32259 19.3025H20.4265C24.464 19.3025 27.7491 22.5728 27.7491 26.5921V31.9635C27.7491 32.5989 27.2311 33.1145 26.5929 33.1145V33.1145ZM2.31243 30.8125H25.4367V26.5921C25.4367 23.8422 23.1889 21.6045 20.4265 21.6045H7.32259C4.56021 21.6045 2.31243 23.8422 2.31243 26.5921V30.8125Z" fill="black"/>
<path d="M35.8426 16.617H22.739C22.1007 16.617 21.5828 16.1013 21.5828 15.466C21.5828 14.8306 22.1007 14.3149 22.739 14.3149H35.8426C36.4808 14.3149 36.9988 14.8306 36.9988 15.466C36.9988 16.1013 36.4808 16.617 35.8426 16.617Z" fill="black"/>
<path d="M29.6763 22.7556C29.3801 22.7556 29.0843 22.6435 28.8591 22.4181C28.4074 21.9682 28.4074 21.2393 28.8591 20.7897L34.2085 15.4643L28.8591 10.139C28.4074 9.68934 28.4074 8.96041 28.8591 8.51079C29.3107 8.06118 30.0429 8.06118 30.4949 8.51079L36.6612 14.6494C37.1129 15.099 37.1129 15.8282 36.6612 16.2778L30.4949 22.4165C30.2682 22.6435 29.9721 22.7556 29.6763 22.7556V22.7556Z" fill="black"/>
</svg>
