<svg width="26" height="17" viewBox="0 0 26 17" fill="none" xmlns="http://www.w3.org/2000/svg">
<g clip-path="url(#clip0)">
<path d="M25.2658 14.6719V2.15813C25.2658 1.20235 24.4622 0.42749 23.471 0.42749H2.20904C1.2178 0.42749 0.414196 1.20235 0.414196 2.15813V14.672C0.414196 15.6277 1.2178 16.4026 2.20904 16.4026H23.471C24.4622 16.4025 25.2658 15.6277 25.2658 14.6719Z" fill="white"/>
<path d="M25.2658 14.6277V14.7227C25.2658 15.6504 24.4858 16.4025 23.5237 16.4025H2.15637C1.19423 16.4025 0.414196 15.6503 0.414196 14.7227V14.6277H25.2658Z" fill="#ED1F34"/>
<path d="M25.2658 11.0775H0.414196V12.8524H25.2658V11.0775Z" fill="#ED1F34"/>
<path d="M25.2658 7.52734H11.3307V9.30272H25.2658V7.52734Z" fill="#ED1F34"/>
<path d="M25.2658 3.97766H11.3307V5.7525H25.2658V3.97766Z" fill="#ED1F34"/>
<path d="M11.3307 0.42749V2.20233H25.2658V1.9036C25.2658 1.08841 24.5804 0.42749 23.7349 0.42749H11.3307Z" fill="#ED1F34"/>
<path d="M0.414196 2.07137V9.3027H11.3307V0.42749H2.11906C1.17752 0.42749 0.414196 1.16351 0.414196 2.07137Z" fill="#164FCE"/>
<path d="M2.58807 7.45281C2.75278 7.45281 2.8863 7.32406 2.8863 7.16525C2.8863 7.00643 2.75278 6.87769 2.58807 6.87769C2.42336 6.87769 2.28984 7.00643 2.28984 7.16525C2.28984 7.32406 2.42336 7.45281 2.58807 7.45281Z" fill="white"/>
<path d="M4.23029 7.45281C4.39499 7.45281 4.52851 7.32406 4.52851 7.16525C4.52851 7.00643 4.39499 6.87769 4.23029 6.87769C4.06558 6.87769 3.93206 7.00643 3.93206 7.16525C3.93206 7.32406 4.06558 7.45281 4.23029 7.45281Z" fill="white"/>
<path d="M5.87215 7.45281C6.03686 7.45281 6.17038 7.32406 6.17038 7.16525C6.17038 7.00643 6.03686 6.87769 5.87215 6.87769C5.70745 6.87769 5.57393 7.00643 5.57393 7.16525C5.57393 7.32406 5.70745 7.45281 5.87215 7.45281Z" fill="white"/>
<path d="M7.51454 7.45281C7.67925 7.45281 7.81277 7.32406 7.81277 7.16525C7.81277 7.00643 7.67925 6.87769 7.51454 6.87769C7.34983 6.87769 7.21631 7.00643 7.21631 7.16525C7.21631 7.32406 7.34983 7.45281 7.51454 7.45281Z" fill="white"/>
<path d="M9.15693 7.45281C9.32164 7.45281 9.45516 7.32406 9.45516 7.16525C9.45516 7.00643 9.32164 6.87769 9.15693 6.87769C8.99222 6.87769 8.8587 7.00643 8.8587 7.16525C8.8587 7.32406 8.99222 7.45281 9.15693 7.45281Z" fill="white"/>
<path d="M1.76694 8.22014C1.93164 8.22014 2.06517 8.0914 2.06517 7.93258C2.06517 7.77376 1.93164 7.64502 1.76694 7.64502C1.60223 7.64502 1.46871 7.77376 1.46871 7.93258C1.46871 8.0914 1.60223 8.22014 1.76694 8.22014Z" fill="white"/>
<path d="M3.40907 8.22014C3.57378 8.22014 3.70731 8.0914 3.70731 7.93258C3.70731 7.77376 3.57378 7.64502 3.40907 7.64502C3.24437 7.64502 3.11084 7.77376 3.11084 7.93258C3.11084 8.0914 3.24437 8.22014 3.40907 8.22014Z" fill="white"/>
<path d="M5.05144 8.22014C5.21615 8.22014 5.34967 8.0914 5.34967 7.93258C5.34967 7.77376 5.21615 7.64502 5.05144 7.64502C4.88673 7.64502 4.75321 7.77376 4.75321 7.93258C4.75321 8.0914 4.88673 8.22014 5.05144 8.22014Z" fill="white"/>
<path d="M6.69332 8.22014C6.85803 8.22014 6.99155 8.0914 6.99155 7.93258C6.99155 7.77376 6.85803 7.64502 6.69332 7.64502C6.52861 7.64502 6.39509 7.77376 6.39509 7.93258C6.39509 8.0914 6.52861 8.22014 6.69332 8.22014Z" fill="white"/>
<path d="M8.33577 8.22014C8.50047 8.22014 8.63399 8.0914 8.63399 7.93258C8.63399 7.77376 8.50047 7.64502 8.33577 7.64502C8.17106 7.64502 8.03754 7.77376 8.03754 7.93258C8.03754 8.0914 8.17106 8.22014 8.33577 8.22014Z" fill="white"/>
<path d="M9.97815 8.22014C10.1429 8.22014 10.2764 8.0914 10.2764 7.93258C10.2764 7.77376 10.1429 7.64502 9.97815 7.64502C9.81345 7.64502 9.67992 7.77376 9.67992 7.93258C9.67992 8.0914 9.81345 8.22014 9.97815 8.22014Z" fill="white"/>
<path d="M1.76694 6.68596C1.93164 6.68596 2.06517 6.55722 2.06517 6.3984C2.06517 6.23959 1.93164 6.11084 1.76694 6.11084C1.60223 6.11084 1.46871 6.23959 1.46871 6.3984C1.46871 6.55722 1.60223 6.68596 1.76694 6.68596Z" fill="white"/>
<path d="M3.40907 6.68596C3.57378 6.68596 3.70731 6.55722 3.70731 6.3984C3.70731 6.23959 3.57378 6.11084 3.40907 6.11084C3.24437 6.11084 3.11084 6.23959 3.11084 6.3984C3.11084 6.55722 3.24437 6.68596 3.40907 6.68596Z" fill="white"/>
<path d="M5.05144 6.68596C5.21615 6.68596 5.34967 6.55722 5.34967 6.3984C5.34967 6.23959 5.21615 6.11084 5.05144 6.11084C4.88673 6.11084 4.75321 6.23959 4.75321 6.3984C4.75321 6.55722 4.88673 6.68596 5.05144 6.68596Z" fill="white"/>
<path d="M6.69332 6.68596C6.85803 6.68596 6.99155 6.55722 6.99155 6.3984C6.99155 6.23959 6.85803 6.11084 6.69332 6.11084C6.52861 6.11084 6.39509 6.23959 6.39509 6.3984C6.39509 6.55722 6.52861 6.68596 6.69332 6.68596Z" fill="white"/>
<path d="M8.33577 6.68596C8.50047 6.68596 8.63399 6.55722 8.63399 6.3984C8.63399 6.23959 8.50047 6.11084 8.33577 6.11084C8.17106 6.11084 8.03754 6.23959 8.03754 6.3984C8.03754 6.55722 8.17106 6.68596 8.33577 6.68596Z" fill="white"/>
<path d="M9.97815 6.68596C10.1429 6.68596 10.2764 6.55722 10.2764 6.3984C10.2764 6.23959 10.1429 6.11084 9.97815 6.11084C9.81345 6.11084 9.67992 6.23959 9.67992 6.3984C9.67992 6.55722 9.81345 6.68596 9.97815 6.68596Z" fill="white"/>
<path d="M2.58807 5.91973C2.75278 5.91973 2.8863 5.79098 2.8863 5.63217C2.8863 5.47335 2.75278 5.3446 2.58807 5.3446C2.42336 5.3446 2.28984 5.47335 2.28984 5.63217C2.28984 5.79098 2.42336 5.91973 2.58807 5.91973Z" fill="white"/>
<path d="M4.23029 5.91973C4.39499 5.91973 4.52851 5.79098 4.52851 5.63217C4.52851 5.47335 4.39499 5.3446 4.23029 5.3446C4.06558 5.3446 3.93206 5.47335 3.93206 5.63217C3.93206 5.79098 4.06558 5.91973 4.23029 5.91973Z" fill="white"/>
<path d="M5.87215 5.91973C6.03686 5.91973 6.17038 5.79098 6.17038 5.63217C6.17038 5.47335 6.03686 5.3446 5.87215 5.3446C5.70745 5.3446 5.57393 5.47335 5.57393 5.63217C5.57393 5.79098 5.70745 5.91973 5.87215 5.91973Z" fill="white"/>
<path d="M7.51454 5.91973C7.67925 5.91973 7.81277 5.79098 7.81277 5.63217C7.81277 5.47335 7.67925 5.3446 7.51454 5.3446C7.34983 5.3446 7.21631 5.47335 7.21631 5.63217C7.21631 5.79098 7.34983 5.91973 7.51454 5.91973Z" fill="white"/>
<path d="M9.15693 5.91973C9.32164 5.91973 9.45516 5.79098 9.45516 5.63217C9.45516 5.47335 9.32164 5.3446 9.15693 5.3446C8.99222 5.3446 8.8587 5.47335 8.8587 5.63217C8.8587 5.79098 8.99222 5.91973 9.15693 5.91973Z" fill="white"/>
<path d="M1.76694 5.15288C1.93164 5.15288 2.06517 5.02414 2.06517 4.86532C2.06517 4.7065 1.93164 4.57776 1.76694 4.57776C1.60223 4.57776 1.46871 4.7065 1.46871 4.86532C1.46871 5.02414 1.60223 5.15288 1.76694 5.15288Z" fill="white"/>
<path d="M3.40907 5.15288C3.57378 5.15288 3.70731 5.02414 3.70731 4.86532C3.70731 4.7065 3.57378 4.57776 3.40907 4.57776C3.24437 4.57776 3.11084 4.7065 3.11084 4.86532C3.11084 5.02414 3.24437 5.15288 3.40907 5.15288Z" fill="white"/>
<path d="M5.05144 5.15288C5.21615 5.15288 5.34967 5.02414 5.34967 4.86532C5.34967 4.7065 5.21615 4.57776 5.05144 4.57776C4.88673 4.57776 4.75321 4.7065 4.75321 4.86532C4.75321 5.02414 4.88673 5.15288 5.05144 5.15288Z" fill="white"/>
<path d="M6.69332 5.15288C6.85803 5.15288 6.99155 5.02414 6.99155 4.86532C6.99155 4.7065 6.85803 4.57776 6.69332 4.57776C6.52861 4.57776 6.39509 4.7065 6.39509 4.86532C6.39509 5.02414 6.52861 5.15288 6.69332 5.15288Z" fill="white"/>
<path d="M8.33577 5.15288C8.50047 5.15288 8.63399 5.02414 8.63399 4.86532C8.63399 4.7065 8.50047 4.57776 8.33577 4.57776C8.17106 4.57776 8.03754 4.7065 8.03754 4.86532C8.03754 5.02414 8.17106 5.15288 8.33577 5.15288Z" fill="white"/>
<path d="M9.97815 5.15288C10.1429 5.15288 10.2764 5.02414 10.2764 4.86532C10.2764 4.7065 10.1429 4.57776 9.97815 4.57776C9.81345 4.57776 9.67992 4.7065 9.67992 4.86532C9.67992 5.02414 9.81345 5.15288 9.97815 5.15288Z" fill="white"/>
<path d="M2.58807 4.38603C2.75278 4.38603 2.8863 4.25729 2.8863 4.09847C2.8863 3.93966 2.75278 3.81091 2.58807 3.81091C2.42336 3.81091 2.28984 3.93966 2.28984 4.09847C2.28984 4.25729 2.42336 4.38603 2.58807 4.38603Z" fill="white"/>
<path d="M4.23029 4.38603C4.39499 4.38603 4.52851 4.25729 4.52851 4.09847C4.52851 3.93966 4.39499 3.81091 4.23029 3.81091C4.06558 3.81091 3.93206 3.93966 3.93206 4.09847C3.93206 4.25729 4.06558 4.38603 4.23029 4.38603Z" fill="white"/>
<path d="M5.87215 4.38603C6.03686 4.38603 6.17038 4.25729 6.17038 4.09847C6.17038 3.93966 6.03686 3.81091 5.87215 3.81091C5.70745 3.81091 5.57393 3.93966 5.57393 4.09847C5.57393 4.25729 5.70745 4.38603 5.87215 4.38603Z" fill="white"/>
<path d="M7.51454 4.38603C7.67925 4.38603 7.81277 4.25729 7.81277 4.09847C7.81277 3.93966 7.67925 3.81091 7.51454 3.81091C7.34983 3.81091 7.21631 3.93966 7.21631 4.09847C7.21631 4.25729 7.34983 4.38603 7.51454 4.38603Z" fill="white"/>
<path d="M9.15693 4.38603C9.32164 4.38603 9.45516 4.25729 9.45516 4.09847C9.45516 3.93966 9.32164 3.81091 9.15693 3.81091C8.99222 3.81091 8.8587 3.93966 8.8587 4.09847C8.8587 4.25729 8.99222 4.38603 9.15693 4.38603Z" fill="white"/>
<path d="M1.76694 3.6187C1.93164 3.6187 2.06517 3.48996 2.06517 3.33114C2.06517 3.17232 1.93164 3.04358 1.76694 3.04358C1.60223 3.04358 1.46871 3.17232 1.46871 3.33114C1.46871 3.48996 1.60223 3.6187 1.76694 3.6187Z" fill="white"/>
<path d="M3.40907 3.6187C3.57378 3.6187 3.70731 3.48996 3.70731 3.33114C3.70731 3.17232 3.57378 3.04358 3.40907 3.04358C3.24437 3.04358 3.11084 3.17232 3.11084 3.33114C3.11084 3.48996 3.24437 3.6187 3.40907 3.6187Z" fill="white"/>
<path d="M5.05144 3.6187C5.21615 3.6187 5.34967 3.48996 5.34967 3.33114C5.34967 3.17232 5.21615 3.04358 5.05144 3.04358C4.88673 3.04358 4.75321 3.17232 4.75321 3.33114C4.75321 3.48996 4.88673 3.6187 5.05144 3.6187Z" fill="white"/>
<path d="M6.69332 3.6187C6.85803 3.6187 6.99155 3.48996 6.99155 3.33114C6.99155 3.17232 6.85803 3.04358 6.69332 3.04358C6.52861 3.04358 6.39509 3.17232 6.39509 3.33114C6.39509 3.48996 6.52861 3.6187 6.69332 3.6187Z" fill="white"/>
<path d="M8.33577 3.6187C8.50047 3.6187 8.63399 3.48996 8.63399 3.33114C8.63399 3.17232 8.50047 3.04358 8.33577 3.04358C8.17106 3.04358 8.03754 3.17232 8.03754 3.33114C8.03754 3.48996 8.17106 3.6187 8.33577 3.6187Z" fill="white"/>
<path d="M9.97815 3.6187C10.1429 3.6187 10.2764 3.48996 10.2764 3.33114C10.2764 3.17232 10.1429 3.04358 9.97815 3.04358C9.81345 3.04358 9.67992 3.17232 9.67992 3.33114C9.67992 3.48996 9.81345 3.6187 9.97815 3.6187Z" fill="white"/>
<path d="M2.58807 2.85259C2.75278 2.85259 2.8863 2.72384 2.8863 2.56503C2.8863 2.40621 2.75278 2.27747 2.58807 2.27747C2.42336 2.27747 2.28984 2.40621 2.28984 2.56503C2.28984 2.72384 2.42336 2.85259 2.58807 2.85259Z" fill="white"/>
<path d="M4.23029 2.85259C4.39499 2.85259 4.52851 2.72384 4.52851 2.56503C4.52851 2.40621 4.39499 2.27747 4.23029 2.27747C4.06558 2.27747 3.93206 2.40621 3.93206 2.56503C3.93206 2.72384 4.06558 2.85259 4.23029 2.85259Z" fill="white"/>
<path d="M5.87215 2.85259C6.03686 2.85259 6.17038 2.72384 6.17038 2.56503C6.17038 2.40621 6.03686 2.27747 5.87215 2.27747C5.70745 2.27747 5.57393 2.40621 5.57393 2.56503C5.57393 2.72384 5.70745 2.85259 5.87215 2.85259Z" fill="white"/>
<path d="M7.51454 2.85259C7.67925 2.85259 7.81277 2.72384 7.81277 2.56503C7.81277 2.40621 7.67925 2.27747 7.51454 2.27747C7.34983 2.27747 7.21631 2.40621 7.21631 2.56503C7.21631 2.72384 7.34983 2.85259 7.51454 2.85259Z" fill="white"/>
<path d="M9.15693 2.85259C9.32164 2.85259 9.45516 2.72384 9.45516 2.56503C9.45516 2.40621 9.32164 2.27747 9.15693 2.27747C8.99222 2.27747 8.8587 2.40621 8.8587 2.56503C8.8587 2.72384 8.99222 2.85259 9.15693 2.85259Z" fill="white"/>
<path d="M1.76694 2.08513C1.93164 2.08513 2.06517 1.95639 2.06517 1.79757C2.06517 1.63876 1.93164 1.51001 1.76694 1.51001C1.60223 1.51001 1.46871 1.63876 1.46871 1.79757C1.46871 1.95639 1.60223 2.08513 1.76694 2.08513Z" fill="white"/>
<path d="M3.40907 2.08513C3.57378 2.08513 3.70731 1.95639 3.70731 1.79757C3.70731 1.63876 3.57378 1.51001 3.40907 1.51001C3.24437 1.51001 3.11084 1.63876 3.11084 1.79757C3.11084 1.95639 3.24437 2.08513 3.40907 2.08513Z" fill="white"/>
<path d="M5.05144 2.08513C5.21615 2.08513 5.34967 1.95639 5.34967 1.79757C5.34967 1.63876 5.21615 1.51001 5.05144 1.51001C4.88673 1.51001 4.75321 1.63876 4.75321 1.79757C4.75321 1.95639 4.88673 2.08513 5.05144 2.08513Z" fill="white"/>
<path d="M6.69332 2.08513C6.85803 2.08513 6.99155 1.95639 6.99155 1.79757C6.99155 1.63876 6.85803 1.51001 6.69332 1.51001C6.52861 1.51001 6.39509 1.63876 6.39509 1.79757C6.39509 1.95639 6.52861 2.08513 6.69332 2.08513Z" fill="white"/>
<path d="M8.33577 2.08513C8.50047 2.08513 8.63399 1.95639 8.63399 1.79757C8.63399 1.63876 8.50047 1.51001 8.33577 1.51001C8.17106 1.51001 8.03754 1.63876 8.03754 1.79757C8.03754 1.95639 8.17106 2.08513 8.33577 2.08513Z" fill="white"/>
<path d="M9.97815 2.08513C10.1429 2.08513 10.2764 1.95639 10.2764 1.79757C10.2764 1.63876 10.1429 1.51001 9.97815 1.51001C9.81345 1.51001 9.67992 1.63876 9.67992 1.79757C9.67992 1.95639 9.81345 2.08513 9.97815 2.08513Z" fill="white"/>
<path d="M23.4894 0.0280762H2.19062C0.982711 0.0280762 0 0.975634 0 2.14034V14.6896C0 15.8543 0.982711 16.8019 2.19062 16.8019H23.4894C24.6973 16.8019 25.6799 15.8543 25.6799 14.6896V2.14034C25.68 0.975634 24.6973 0.0280762 23.4894 0.0280762ZM0.828381 14.2283V13.2517H20.2955C20.5242 13.2517 20.7097 13.0729 20.7097 12.8523C20.7097 12.6317 20.5242 12.4529 20.2955 12.4529H0.828381V11.4768H24.8516V12.4529H21.9523C21.7235 12.4529 21.5381 12.6317 21.5381 12.8523C21.5381 13.0729 21.7235 13.2517 21.9523 13.2517H24.8516V14.2283H0.828381ZM14.8938 6.15183H24.8516V7.12792H11.7449V6.15183H13.2371C13.4658 6.15183 13.6513 5.97308 13.6513 5.75245C13.6513 5.53182 13.4658 5.35308 13.2371 5.35308H11.7449V4.37699H24.8516V5.35308H14.8938C14.6651 5.35308 14.4797 5.53182 14.4797 5.75245C14.4797 5.97308 14.6651 6.15183 14.8938 6.15183ZM11.7449 3.57824V2.60162H24.8516V3.57824H11.7449ZM11.7449 7.92667H24.8516V8.90329H11.7449V7.92667ZM24.8516 9.70204V10.6781H0.828381V9.70204H24.8516ZM24.8058 1.80287H11.7449V0.826824H23.4894C24.1195 0.826824 24.6509 1.24163 24.8058 1.80287ZM2.19062 0.826824H10.9165V8.90329H0.828381V2.14034C0.828381 1.41602 1.43948 0.826824 2.19062 0.826824ZM23.4894 16.0031H2.19062C1.56046 16.0031 1.02906 15.5883 0.874223 15.027H24.8059C24.6509 15.5883 24.1195 16.0031 23.4894 16.0031Z" fill="#121B21"/>
</g>
<defs>
<clipPath id="clip0">
<rect width="25.68" height="16.83" fill="white"/>
</clipPath>
</defs>
</svg>
