<svg width="37" height="34" viewBox="0 0 37 34" fill="none" xmlns="http://www.w3.org/2000/svg">
<g clip-path="url(#clip0)">
<path d="M30.3924 17.0001C29.6626 17.0001 29.071 17.5437 29.071 18.2144V30.357C29.071 31.0277 28.4794 31.5713 27.7496 31.5713H3.96423C3.23441 31.5713 2.6428 31.0277 2.6428 30.357V6.07164C2.6428 5.40099 3.23441 4.85735 3.96423 4.85735H19.8212C20.551 4.85735 21.1426 4.3137 21.1426 3.64306C21.1426 2.97241 20.551 2.42883 19.8212 2.42883H3.96423C1.77485 2.42883 0 4.05977 0 6.07164V30.357C0 32.3689 1.77485 33.9998 3.96423 33.9998H27.7496C29.939 33.9998 31.7139 32.3689 31.7139 30.357V18.2143C31.7139 17.5437 31.1223 17.0001 30.3924 17.0001Z" fill="black"/>
<path d="M35.5188 1.36191C34.57 0.489908 33.2831 0.000121054 31.9412 0.000263352C30.5986 -0.00329408 29.3104 0.487347 28.3642 1.36269L10.9585 17.3558C10.8141 17.4894 10.7051 17.652 10.64 17.8305L7.99722 25.1162C7.76657 25.7524 8.14093 26.44 8.83335 26.6519C8.96769 26.693 9.10837 26.714 9.24991 26.7142C9.39175 26.7139 9.53275 26.693 9.66747 26.6523L17.5959 24.2237C17.7907 24.164 17.9676 24.0634 18.1126 23.9299L35.5183 7.93554C37.4938 6.1204 37.494 3.17726 35.5188 1.36191ZM33.6498 6.21972L16.4714 22.0053L11.339 23.5801L13.0476 18.8699L30.2326 3.08448C31.1773 2.21804 32.7077 2.21946 33.6506 3.08762C34.101 3.50234 34.3548 4.06377 34.3567 4.64968C34.3583 5.23872 34.1038 5.80393 33.6498 6.21972Z" fill="black"/>
</g>
<defs>
<clipPath id="clip0">
<rect width="37" height="34" fill="white"/>
</clipPath>
</defs>
</svg>
