<svg width="50" height="42" viewBox="0 0 50 42" fill="none" xmlns="http://www.w3.org/2000/svg">
<path d="M18.8453 17.0055C20.7424 17.0055 22.2804 15.5906 22.2804 13.8452C22.2804 12.0998 20.7424 10.6849 18.8453 10.6849C16.9481 10.6849 15.4102 12.0998 15.4102 13.8452C15.4102 15.5906 16.9481 17.0055 18.8453 17.0055Z" fill="black"/>
<path d="M47.042 25.4771C45.4198 24.0725 43.3683 23.1507 41.126 22.8874V6.82248C41.126 5.11064 40.3626 3.57438 39.1698 2.43316C37.9294 1.29194 36.2595 0.633545 34.3989 0.633545H6.7271C4.86641 0.633545 3.19656 1.33584 1.95611 2.43316C0.715649 3.57438 0 5.11064 0 6.82248V27.0572V28.9446V33.0267C0 34.7385 0.763359 36.2748 1.95611 37.416C3.19656 38.5572 4.86641 39.2156 6.7271 39.2156H33.4924C35.2576 40.5324 37.4523 41.3664 39.8855 41.3664C42.7004 41.3664 45.229 40.3129 47.042 38.645C48.855 36.9771 50 34.6507 50 32.061C50 29.4713 48.855 27.145 47.042 25.4771ZM2.52863 6.82248C2.52863 5.76904 3.00573 4.80339 3.76908 4.145C4.53244 3.44271 5.58206 3.00377 6.7271 3.00377H34.3989C35.5439 3.00377 36.5935 3.44271 37.3569 4.145C38.1202 4.84729 38.5973 5.81293 38.5973 6.86637V20.561L31.5363 14.0648C31.0592 13.6259 30.2481 13.582 29.7233 14.0648L19.084 23.8969L11.8798 17.2251C11.4027 16.7862 10.5916 16.7423 10.0668 17.2251L2.52863 24.248V6.82248V6.82248ZM6.67939 36.9771V36.8893C5.53435 36.8893 4.48473 36.4503 3.72137 35.7481C3.00573 35.0458 2.52863 34.0801 2.52863 33.0267V28.9446V27.5839L10.9733 19.7709L18.1775 26.3988C18.6546 26.8377 19.4656 26.8377 19.9905 26.3988L30.6298 16.5668L37.5954 23.019C37.4523 23.0629 37.3092 23.1068 37.166 23.1507C36.9752 23.1946 36.7843 23.2385 36.5458 23.3263C36.355 23.3702 36.1641 23.458 35.9733 23.5019C35.8302 23.5458 35.7347 23.5897 35.5916 23.6774C35.4008 23.7652 35.2576 23.8091 35.1145 23.8969C34.876 24.0286 34.6374 24.1603 34.3989 24.2919C34.2557 24.3797 34.1603 24.4236 34.0172 24.5114C33.9218 24.5553 33.874 24.5992 33.7786 24.6431C33.3492 24.9064 32.9676 25.2137 32.6336 25.5648C30.8206 27.2328 29.6756 29.5591 29.6756 32.1488C29.6756 32.8072 29.771 33.4217 29.9141 34.0801C29.9618 34.2557 30.0095 34.3874 30.0573 34.5629C30.2004 35.0019 30.3435 35.4408 30.5343 35.8797V35.9236C30.7252 36.2748 30.916 36.6698 31.1546 36.9771H6.67939V36.9771ZM45.1813 36.9771C43.7977 38.25 41.937 38.9961 39.8378 38.9961C37.834 38.9961 35.9733 38.25 34.6374 37.0648C34.4466 36.8893 34.2557 36.6698 34.0649 36.4942C33.9218 36.3626 33.7786 36.187 33.6355 36.0553C33.4447 35.8358 33.3015 35.5725 33.1584 35.3091C33.063 35.1335 32.9676 35.0019 32.8721 34.8263C32.7767 34.6068 32.6813 34.3435 32.6336 34.0801C32.5859 33.9045 32.4905 33.6851 32.4427 33.5095C32.3473 33.0706 32.2996 32.5877 32.2996 32.1049C32.2996 30.1736 33.1584 28.4618 34.4943 27.1889C35.8302 25.916 37.7385 25.1698 39.8378 25.1698C41.937 25.1698 43.7977 25.9599 45.1813 27.1889C46.5649 28.4618 47.376 30.1736 47.376 32.1049C47.376 33.9923 46.5172 35.7042 45.1813 36.9771Z" fill="black"/>
<path d="M40.7441 27.3646C40.6486 27.2768 40.5055 27.189 40.3147 27.1012C40.1715 27.0573 40.0284 27.0134 39.8853 27.0134C39.8376 27.0134 39.8376 27.0134 39.8376 27.0134C39.7899 27.0134 39.7899 27.0134 39.7899 27.0134C39.6467 27.0134 39.5036 27.0573 39.3605 27.1012C39.2173 27.1451 39.0742 27.2329 38.9311 27.3646L35.9731 30.0859C35.496 30.5249 35.496 31.2711 35.9731 31.7539C36.4502 32.1928 37.2612 32.1928 37.786 31.7539L38.5494 31.0516V35.8798C38.5494 36.5382 39.1219 37.065 39.8376 37.065C40.5532 37.065 41.1257 36.5382 41.1257 35.8798V31.0516L41.8891 31.7539C42.3662 32.1928 43.1773 32.1928 43.7021 31.7539C44.1792 31.315 44.1792 30.5688 43.7021 30.0859L40.7441 27.3646Z" fill="black"/>
</svg>
