<svg width="26" height="17" viewBox="0 0 26 17" fill="none" xmlns="http://www.w3.org/2000/svg">
<g clip-path="url(#clip0)">
<path d="M25.2658 2.14038V14.6897C25.2658 15.6357 24.4704 16.4026 23.4894 16.4026H2.19063C1.20952 16.4026 0.414195 15.6357 0.414195 14.6897V2.14038C0.414195 1.19437 1.20952 0.42749 2.19063 0.42749H23.4894C24.4704 0.42749 25.2658 1.19442 25.2658 2.14038Z" fill="#ED1F34"/>
<path d="M12.84 8.41538H0.414195V2.23505C0.414195 1.237 1.25331 0.427856 2.28843 0.427856H12.84V8.41538Z" fill="#103B9B"/>
<path d="M6.62711 3.48975C6.09425 3.48975 5.66065 3.90784 5.66065 4.42163C5.66065 4.93543 6.09425 5.35352 6.62711 5.35352C7.15997 5.35352 7.59357 4.93543 7.59357 4.42163C7.59357 3.90784 7.15997 3.48975 6.62711 3.48975Z" fill="white"/>
<path d="M9.10282 4.02228H8.83323C8.77485 3.72205 8.65242 3.44339 8.47953 3.20037L8.67067 3.01606C8.83243 2.86009 8.83243 2.60726 8.67067 2.45129C8.50897 2.29527 8.2467 2.29532 8.0849 2.45129L7.89375 2.6356C7.64172 2.46889 7.35277 2.35079 7.04135 2.29455V2.03451C7.04135 1.81393 6.85592 1.63513 6.62716 1.63513C6.39839 1.63513 6.21296 1.81393 6.21296 2.03451V2.29455C5.90159 2.35084 5.61259 2.46889 5.36056 2.6356L5.16941 2.45129C5.00766 2.29527 4.74539 2.29532 4.58369 2.45129C4.42193 2.60726 4.42193 2.86014 4.58369 3.01606L4.77483 3.20037C4.60194 3.44339 4.47941 3.722 4.42113 4.02228H4.15144C3.92268 4.02228 3.73725 4.20108 3.73725 4.42166C3.73725 4.64223 3.92268 4.82103 4.15144 4.82103H4.42103C4.47936 5.12126 4.60184 5.39992 4.77473 5.64294L4.58359 5.8272C4.42183 5.98317 4.42183 6.23601 4.58359 6.39197C4.66444 6.46998 4.77047 6.50896 4.87645 6.50896C4.98243 6.50896 5.08846 6.46998 5.16931 6.39197L5.36046 6.20771C5.61249 6.37437 5.90144 6.49252 6.21286 6.54876V6.80881C6.21286 7.02938 6.39829 7.20818 6.62706 7.20818C6.85582 7.20818 7.04125 7.02938 7.04125 6.80881V6.54876C7.35262 6.49252 7.64162 6.37442 7.89365 6.20771L8.0848 6.39197C8.16565 6.46998 8.27168 6.50896 8.37766 6.50896C8.48364 6.50896 8.58967 6.46998 8.67052 6.39197C8.83228 6.23601 8.83228 5.98312 8.67052 5.8272L8.47938 5.64294C8.65227 5.39992 8.77475 5.12131 8.83308 4.82103H9.10267C9.33143 4.82103 9.51686 4.64223 9.51686 4.42166C9.51701 4.20108 9.33158 4.02228 9.10282 4.02228ZM6.62711 5.78759C5.84597 5.78759 5.21049 5.17485 5.21049 4.42166C5.21049 3.66847 5.84597 3.05572 6.62711 3.05572C7.40824 3.05572 8.04372 3.66847 8.04372 4.42166C8.04372 5.17485 7.40824 5.78759 6.62711 5.78759Z" fill="white"/>
<g filter="url(#filter0_d)">
<path d="M23.4894 0.0282441H12.8454C12.8436 0.0282441 12.8419 0.0279541 12.84 0.0279541C12.8382 0.0279541 12.8365 0.0281474 12.8346 0.0282441H2.19057C0.982711 0.0282441 0 0.975802 0 2.14051V14.6898C0 15.8545 0.982711 16.8021 2.19057 16.8021H23.4893C24.6972 16.8021 25.6799 15.8545 25.6799 14.6898V2.14051C25.68 0.975802 24.6973 0.0282441 23.4894 0.0282441ZM2.19057 0.826992H12.4258V8.01606L0.828381 8.01577V2.14051C0.828381 1.41624 1.43948 0.826992 2.19057 0.826992ZM24.8516 14.6898C24.8516 15.4141 24.2406 16.0033 23.4894 16.0033H2.19057C1.43943 16.0033 0.828381 15.4141 0.828381 14.6898V8.81457L12.84 8.81486C12.9498 8.81486 13.0552 8.77278 13.1329 8.69787C13.2106 8.62301 13.2542 8.5214 13.2542 8.41549V0.826992H23.4894C24.2405 0.826992 24.8516 1.41619 24.8516 2.14051V14.6898Z" fill="#1A1C20"/>
</g>
</g>
<defs>
<filter id="filter0_d" x="-4" y="0.0279541" width="33.68" height="24.7741" filterUnits="userSpaceOnUse" color-interpolation-filters="sRGB">
<feFlood flood-opacity="0" result="BackgroundImageFix"/>
<feColorMatrix in="SourceAlpha" type="matrix" values="0 0 0 0 0 0 0 0 0 0 0 0 0 0 0 0 0 0 127 0"/>
<feOffset dy="4"/>
<feGaussianBlur stdDeviation="2"/>
<feColorMatrix type="matrix" values="0 0 0 0 0 0 0 0 0 0 0 0 0 0 0 0 0 0 0.25 0"/>
<feBlend mode="normal" in2="BackgroundImageFix" result="effect1_dropShadow"/>
<feBlend mode="normal" in="SourceGraphic" in2="effect1_dropShadow" result="shape"/>
</filter>
<clipPath id="clip0">
<rect width="25.68" height="16.83" fill="white"/>
</clipPath>
</defs>
</svg>
