<svg width="18" height="18" viewBox="0 0 18 18" fill="none" xmlns="http://www.w3.org/2000/svg">
<g clip-path="url(#clip0)">
<path d="M12.4303 6.20598L11.0213 6.1543L10.7158 14.4963L12.1248 14.5478L12.4303 6.20598Z" fill="black"/>
<path d="M9.70483 6.18018H8.29492V14.5222H9.70483V6.18018Z" fill="black"/>
<path d="M7.2838 14.4961L6.97833 6.15405L5.56934 6.20577L5.87484 14.5478L7.2838 14.4961Z" fill="black"/>
<path d="M0.61084 2.70239V4.1123H2.07998L3.24548 17.3569C3.27744 17.7209 3.58225 18 3.94762 18H14.0283C14.3937 18 14.6988 17.7206 14.7305 17.3566L15.896 4.1123H17.3889V2.70239H0.61084ZM13.3826 16.5901H4.59316L3.4953 4.1123H14.4807L13.3826 16.5901Z" fill="black"/>
<path d="M11.3029 0H6.69714C6.04928 0 5.52222 0.527063 5.52222 1.17492V3.40731H6.93212V1.40991H11.0679V3.40731H12.4778V1.17492C12.4778 0.527063 11.9507 0 11.3029 0Z" fill="black"/>
</g>
<defs>
<clipPath id="clip0">
<rect width="18" height="18" fill="white"/>
</clipPath>
</defs>
</svg>
